<svg id="Capa_1" data-name="Capa 1" xmlns="http://www.w3.org/2000/svg" viewBox="0 0 68.71 67.24"><defs><style>.cls-1{fill:#006b5e;}.cls-2{fill:#1d1d1b;}</style></defs><path class="cls-1" d="M30.47,12.41V9.72H40.82v2.69Zm0,36.21V52H40.82V48.62Zm10.35-2.85V15.27H30.47v30.5Z" transform="translate(-8.05 -8.52)"/><path class="cls-1" d="M61.71,12.41V9.72H72.06v2.69Zm0,36.21V52H72.06V48.62Zm10.35-2.85V15.27H61.71v30.5Z" transform="translate(-8.05 -8.52)"/><path class="cls-1" d="M19.82,11.16l.48-2.64,10.18,1.85L30,13ZM13.34,46.79l-.59,3.27,10.18,1.85.6-3.27Zm10.7-1,5.45-30L19.31,14,13.86,44Z" transform="translate(-8.05 -8.52)"/><path class="cls-1" d="M43.91,24.13V13.55H58.62V24.13Zm14.71,7.1H43.91V49.5H58.62ZM43.91,25.75v2.16H58.62V25.75Zm0,24.92v1.24H58.62V50.67Z" transform="translate(-8.05 -8.52)"/><path class="cls-1" d="M8.05,62h4.09c1.93,0,3.06,1.12,3.06,3.45,0,1.84-.75,2.89-1.8,3.17v.08c1.2.31,1.87,1.42,1.87,3.1,0,2.63-1.24,3.82-3,3.82H8.05Zm3.44,5.75c.82,0,1.32-.62,1.32-2s-.46-1.82-1.17-1.82h-1.2V67.7Zm.15,5.9c.79,0,1.21-.73,1.21-2s-.52-1.93-1.34-1.93H10.44V73.6Z" transform="translate(-8.05 -8.52)"/><path class="cls-1" d="M24.83,62h2.4V75.57h-2.4Z" transform="translate(-8.05 -8.52)"/><path class="cls-1" d="M37,62h4.09c1.93,0,3,1.12,3,3.45,0,1.84-.74,2.89-1.79,3.17v.08c1.2.31,1.87,1.42,1.87,3.1,0,2.63-1.24,3.82-3,3.82H37Zm3.44,5.75c.82,0,1.32-.62,1.32-2s-.46-1.82-1.17-1.82h-1.2V67.7Zm.15,5.9c.78,0,1.2-.73,1.2-2s-.51-1.93-1.33-1.93H39.37V73.6Z" transform="translate(-8.05 -8.52)"/><path class="cls-1" d="M53.75,62h2.39V73.5H60v2.07H53.75Z" transform="translate(-8.05 -8.52)"/><path class="cls-1" d="M69.17,72.17V65.33c0-2.35,1.65-3.59,3.81-3.59s3.78,1.1,3.78,3.51v6.86A3.46,3.46,0,0,1,73,75.76C70.7,75.76,69.17,74.61,69.17,72.17Zm5.14,0v-7a1.35,1.35,0,1,0-2.69,0v7a1.35,1.35,0,1,0,2.69,0Z" transform="translate(-8.05 -8.52)"/><rect class="cls-2" y="47.17" width="68.71" height="2.48"/></svg>